<svg width="70" height="70" viewBox="0 0 70 70" fill="none" xmlns="http://www.w3.org/2000/svg">
<path d="M66.5 67.6667V8.16667C66.5 7.52237 65.9776 7 65.3333 7H53.6667C53.0224 7 52.5 7.52237 52.5 8.16667V67.6667H50.1667V22.1667C50.1667 21.5224 49.6443 21 49 21H37.3333C36.689 21 36.1667 21.5224 36.1667 22.1667V67.6667H33.8333V36.1667C33.8333 35.5224 33.311 35 32.6667 35H21C20.3557 35 19.8333 35.5224 19.8333 36.1667V67.6667H17.5V50.1667C17.5 49.5224 16.9776 49 16.3333 49H4.66667C4.02237 49 3.5 49.5224 3.5 50.1667V67.6667H0V70H70V67.6667H66.5ZM15.1667 67.6667H5.83333V51.3333H15.1667V67.6667ZM31.5 67.6667H22.1667V37.3333H31.5V67.6667ZM47.8333 67.6667H38.5V23.3333H47.8333V67.6667ZM64.1667 67.6667H54.8333V9.33333H64.1667V67.6667Z" fill="#053365"/>
<path d="M10.1582 35.8248L42 3.983V10.5H44.3334V0H33.8334V2.33333H40.3504L8.50854 34.1752L10.1582 35.8248Z" fill="#053365"/>
</svg>
