<svg width="68" height="68" viewBox="0 0 68 68" fill="none" xmlns="http://www.w3.org/2000/svg">
<path d="M46.4667 29.4668H44.2C42.3223 29.4668 40.8 30.989 40.8 32.8668V35.1335C40.8 37.0113 42.3223 38.5335 44.2 38.5335H46.4667C48.3445 38.5335 49.8667 37.0113 49.8667 35.1335V32.8668C49.8667 30.989 48.3445 29.4668 46.4667 29.4668ZM47.6 35.1335C47.6 35.7593 47.0926 36.2668 46.4667 36.2668H44.2C43.5742 36.2668 43.0667 35.7593 43.0667 35.1335V32.8668C43.0667 32.2409 43.5742 31.7335 44.2 31.7335H46.4667C47.0926 31.7335 47.6 32.2409 47.6 32.8668V35.1335Z" fill="#053365"/>
<path d="M57.8 4.53333V1.13333C57.8 0.50745 57.2925 0 56.6667 0C56.0408 0 55.5333 0.50745 55.5333 1.13333V4.53333H46.4667V1.13333C46.4667 0.50745 45.9592 0 45.3333 0C44.7075 0 44.2 0.50745 44.2 1.13333V4.53333H35.1333V1.13333C35.1333 0.50745 34.6259 0 34 0C33.3741 0 32.8667 0.50745 32.8667 1.13333V4.53333H23.8V1.13333C23.8 0.50745 23.2925 0 22.6667 0C22.0408 0 21.5333 0.50745 21.5333 1.13333V4.53333H12.4667V1.13333C12.4667 0.50745 11.9592 0 11.3333 0C10.7074 0 10.2 0.50745 10.2 1.13333V4.53333H0V68H68V4.53333H57.8ZM65.7333 65.7333H2.26667V6.8H10.2V10.2C10.2 10.8259 10.7074 11.3333 11.3333 11.3333C11.9592 11.3333 12.4667 10.8259 12.4667 10.2V6.8H21.5333V10.2C21.5333 10.8259 22.0408 11.3333 22.6667 11.3333C23.2925 11.3333 23.8 10.8259 23.8 10.2V6.8H32.8667V10.2C32.8667 10.8259 33.3741 11.3333 34 11.3333C34.6259 11.3333 35.1333 10.8259 35.1333 10.2V6.8H44.2V10.2C44.2 10.8259 44.7075 11.3333 45.3333 11.3333C45.9592 11.3333 46.4667 10.8259 46.4667 10.2V6.8H55.5333V10.2C55.5333 10.8259 56.0408 11.3333 56.6667 11.3333C57.2925 11.3333 57.8 10.8259 57.8 10.2V6.8H65.7333V65.7333Z" fill="#053365"/>
<path d="M34 20.4004C33.3741 20.4004 32.8667 20.9078 32.8667 21.5337V23.8004C32.8667 24.4263 33.3741 24.9337 34 24.9337C34.6259 24.9337 35.1334 24.4263 35.1334 23.8004V21.5337C35.1334 20.9078 34.6259 20.4004 34 20.4004Z" fill="#053365"/>
<path d="M56.6668 20.4004C56.0409 20.4004 55.5334 20.9078 55.5334 21.5337V23.8004C55.5334 24.4263 56.0409 24.9337 56.6668 24.9337C57.2927 24.9337 57.8001 24.4263 57.8001 23.8004V21.5337C57.8001 20.9078 57.2927 20.4004 56.6668 20.4004Z" fill="#053365"/>
<path d="M45.3333 24.9337C45.9592 24.9337 46.4666 24.4263 46.4666 23.8004V21.5337C46.4666 20.9078 45.9592 20.4004 45.3333 20.4004C44.7074 20.4004 44.2 20.9078 44.2 21.5337V23.8004C44.2 24.4263 44.7074 24.9337 45.3333 24.9337Z" fill="#053365"/>
<path d="M22.6668 20.4004C22.0409 20.4004 21.5334 20.9078 21.5334 21.5337V23.8004C21.5334 24.4263 22.0409 24.9337 22.6668 24.9337C23.2927 24.9337 23.8001 24.4263 23.8001 23.8004V21.5337C23.8001 20.9078 23.2927 20.4004 22.6668 20.4004Z" fill="#053365"/>
<path d="M11.3333 20.4004C10.7074 20.4004 10.2 20.9078 10.2 21.5337V23.8004C10.2 24.4263 10.7074 24.9337 11.3333 24.9337C11.9592 24.9337 12.4666 24.4263 12.4666 23.8004V21.5337C12.4666 20.9078 11.9592 20.4004 11.3333 20.4004Z" fill="#053365"/>
<path d="M22.6668 31.7334C22.0409 31.7334 21.5334 32.2408 21.5334 32.8667V35.1334C21.5334 35.7593 22.0409 36.2667 22.6668 36.2667C23.2927 36.2667 23.8001 35.7593 23.8001 35.1334V32.8667C23.8001 32.2408 23.2927 31.7334 22.6668 31.7334Z" fill="#053365"/>
<path d="M11.3333 31.7334C10.7074 31.7334 10.2 32.2408 10.2 32.8667V35.1334C10.2 35.7593 10.7074 36.2667 11.3333 36.2667C11.9592 36.2667 12.4666 35.7593 12.4666 35.1334V32.8667C12.4666 32.2408 11.9592 31.7334 11.3333 31.7334Z" fill="#053365"/>
<path d="M22.6668 43.0664C22.0409 43.0664 21.5334 43.5739 21.5334 44.1997V46.4664C21.5334 47.0923 22.0409 47.5997 22.6668 47.5997C23.2927 47.5997 23.8001 47.0923 23.8001 46.4664V44.1997C23.8001 43.5739 23.2927 43.0664 22.6668 43.0664Z" fill="#053365"/>
<path d="M11.3333 43.0664C10.7074 43.0664 10.2 43.5739 10.2 44.1997V46.4664C10.2 47.0923 10.7074 47.5997 11.3333 47.5997C11.9592 47.5997 12.4666 47.0923 12.4666 46.4664V44.1997C12.4666 43.5739 11.9592 43.0664 11.3333 43.0664Z" fill="#053365"/>
<path d="M22.6668 54.4004C22.0409 54.4004 21.5334 54.9078 21.5334 55.5337V57.8004C21.5334 58.4263 22.0409 58.9337 22.6668 58.9337C23.2927 58.9337 23.8001 58.4263 23.8001 57.8004V55.5337C23.8001 54.9078 23.2927 54.4004 22.6668 54.4004Z" fill="#053365"/>
<path d="M11.3333 54.4004C10.7074 54.4004 10.2 54.9078 10.2 55.5337V57.8004C10.2 58.4263 10.7074 58.9337 11.3333 58.9337C11.9592 58.9337 12.4666 58.4263 12.4666 57.8004V55.5337C12.4666 54.9078 11.9592 54.4004 11.3333 54.4004Z" fill="#053365"/>
<path d="M56.6668 43.0664C56.0409 43.0664 55.5334 43.5739 55.5334 44.1997V46.4664C55.5334 47.0923 56.0409 47.5997 56.6668 47.5997C57.2927 47.5997 57.8001 47.0923 57.8001 46.4664V44.1997C57.8001 43.5739 57.2927 43.0664 56.6668 43.0664Z" fill="#053365"/>
<path d="M45.3333 43.0664C44.7074 43.0664 44.2 43.5739 44.2 44.1997V46.4664C44.2 47.0923 44.7074 47.5997 45.3333 47.5997C45.9592 47.5997 46.4666 47.0923 46.4666 46.4664V44.1997C46.4666 43.5739 45.9592 43.0664 45.3333 43.0664Z" fill="#053365"/>
<path d="M56.6668 54.4004C56.0409 54.4004 55.5334 54.9078 55.5334 55.5337V57.8004C55.5334 58.4263 56.0409 58.9337 56.6668 58.9337C57.2927 58.9337 57.8001 58.4263 57.8001 57.8004V55.5337C57.8001 54.9078 57.2927 54.4004 56.6668 54.4004Z" fill="#053365"/>
<path d="M45.3333 54.4004C44.7074 54.4004 44.2 54.9078 44.2 55.5337V57.8004C44.2 58.4263 44.7074 58.9337 45.3333 58.9337C45.9592 58.9337 46.4666 58.4263 46.4666 57.8004V55.5337C46.4666 54.9078 45.9592 54.4004 45.3333 54.4004Z" fill="#053365"/>
<path d="M56.6668 31.7334C56.0409 31.7334 55.5334 32.2408 55.5334 32.8667V35.1334C55.5334 35.7593 56.0409 36.2667 56.6668 36.2667C57.2927 36.2667 57.8001 35.7593 57.8001 35.1334V32.8667C57.8001 32.2408 57.2927 31.7334 56.6668 31.7334Z" fill="#053365"/>
<path d="M34 31.7334C33.3741 31.7334 32.8667 32.2408 32.8667 32.8667V35.1334C32.8667 35.7593 33.3741 36.2667 34 36.2667C34.6259 36.2667 35.1334 35.7593 35.1334 35.1334V32.8667C35.1334 32.2408 34.6259 31.7334 34 31.7334Z" fill="#053365"/>
<path d="M34 43.0664C33.3741 43.0664 32.8667 43.5739 32.8667 44.1997V46.4664C32.8667 47.0923 33.3741 47.5997 34 47.5997C34.6259 47.5997 35.1334 47.0923 35.1334 46.4664V44.1997C35.1334 43.5739 34.6259 43.0664 34 43.0664Z" fill="#053365"/>
<path d="M34 54.4004C33.3741 54.4004 32.8667 54.9078 32.8667 55.5337V57.8004C32.8667 58.4263 33.3741 58.9337 34 58.9337C34.6259 58.9337 35.1334 58.4263 35.1334 57.8004V55.5337C35.1334 54.9078 34.6259 54.4004 34 54.4004Z" fill="#053365"/>
</svg>
