<svg width="62" height="62" viewBox="0 0 62 62" fill="none" xmlns="http://www.w3.org/2000/svg">
<path d="M30.9999 0C27.0051 0 23.7666 3.23847 23.7666 7.23333C23.7711 11.2263 27.007 14.4621 30.9999 14.4667C34.9948 14.4667 38.2333 11.2282 38.2333 7.23333C38.2333 3.23847 34.9948 0 30.9999 0ZM30.9999 12.4C28.1465 12.4 25.8333 10.0868 25.8333 7.23333C25.8366 4.38133 28.1479 2.07003 30.9999 2.06667C33.8534 2.06667 36.1666 4.37991 36.1666 7.23333C36.1666 10.0868 33.8534 12.4 30.9999 12.4Z" fill="#053365"/>
<path d="M34.1001 15.5H27.9001C22.7662 15.5057 18.6058 19.6661 18.6001 24.8V42.3667H22.7334V62H24.8001V38.2333H22.7334V40.3H20.6668V24.8C20.6713 20.8071 23.9072 17.5712 27.9001 17.5667H34.1001C38.093 17.5712 41.3289 20.8071 41.3334 24.8V40.3H39.2668V38.2333H37.2001V62H39.2668V42.3667H43.4001V24.8C43.3944 19.6661 39.234 15.5057 34.1001 15.5Z" fill="#053365"/>
<path d="M32.0332 42.3662H29.9666V61.9995H32.0332V42.3662Z" fill="#053365"/>
<path d="M51.6666 10.333C48.2423 10.333 45.4666 13.1088 45.4666 16.533C45.4699 19.9558 48.2438 22.7296 51.6666 22.733C55.0908 22.733 57.8666 19.9572 57.8666 16.533C57.8666 13.1088 55.0908 10.333 51.6666 10.333ZM51.6666 20.6663C49.3838 20.6663 47.5332 18.8158 47.5332 16.533C47.5332 14.2502 49.3838 12.3997 51.6666 12.3997C53.9493 12.3997 55.7999 14.2502 55.7999 16.533C55.7999 18.8158 53.9493 20.6663 51.6666 20.6663Z" fill="#053365"/>
<path d="M54.7666 23.7666H45.4666V25.8333H54.7666C57.6186 25.8366 59.9299 28.1479 59.9332 30.9999V44.4333H57.8666V42.3666H55.7999V61.9999H57.8666V46.4999H61.9999V30.9999C61.9954 27.007 58.7595 23.7711 54.7666 23.7666Z" fill="#053365"/>
<path d="M45.4666 42.3662V44.4329H41.3333V46.4995H45.4666V61.9995H47.5332V42.3662H45.4666Z" fill="#053365"/>
<path d="M52.7 46.5H50.6333V62H52.7V46.5Z" fill="#053365"/>
<path d="M10.3333 10.333C6.90909 10.333 4.1333 13.1088 4.1333 16.533C4.13666 19.9558 6.91051 22.7296 10.3333 22.733C13.7575 22.733 16.5333 19.9572 16.5333 16.533C16.5333 13.1088 13.7575 10.333 10.3333 10.333ZM10.3333 20.6663C8.05054 20.6663 6.19997 18.8158 6.19997 16.533C6.19997 14.2502 8.05054 12.3997 10.3333 12.3997C12.6161 12.3997 14.4666 14.2502 14.4666 16.533C14.4666 18.8158 12.6161 20.6663 10.3333 20.6663Z" fill="#053365"/>
<path d="M7.23333 23.7666C3.2404 23.7711 0.00452083 27.007 0 30.9999V46.4999H4.13333V61.9999H6.2V42.3666H4.13333V44.4333H2.06667V30.9999C2.07003 28.1479 4.38133 25.8366 7.23333 25.8333H16.5333V23.7666H7.23333Z" fill="#053365"/>
<path d="M16.5332 44.4329V42.3662H14.4666V61.9995H16.5332V46.4995H20.6666V44.4329H16.5332Z" fill="#053365"/>
<path d="M11.3667 46.5H9.30005V62H11.3667V46.5Z" fill="#053365"/>
</svg>
