<svg width="66" height="66" viewBox="0 0 66 66" fill="none" xmlns="http://www.w3.org/2000/svg">
<path d="M65.7517 37.4064C65.185 35.8149 63.9467 34.5533 62.3661 33.957C63.6852 32.5113 64.1386 30.4745 63.5573 28.6058C62.7116 26.3287 60.5599 24.7999 58.1314 24.7506H40.0232L40.0474 24.6791C41.2077 21.2026 41.7986 17.5614 41.7974 13.8965V10.4515C41.7926 6.2012 38.3481 2.75677 34.0979 2.75195H31.898C30.0756 2.75195 28.5982 4.2293 28.5982 6.05175V12.6513C28.5863 20.1148 22.8399 26.3155 15.399 26.8943V22.5507C15.399 21.9433 14.9065 21.4508 14.2991 21.4508H1.09993C0.492494 21.4508 0 21.9433 0 22.5507V62.1482C0 62.7557 0.492494 63.2482 1.09993 63.2482H14.2991C14.9065 63.2482 15.399 62.7557 15.399 62.1482V58.4305L16.9862 59.2279C20.8154 61.1435 25.0372 62.1432 29.3187 62.1482H53.8966C56.934 62.1459 59.3945 59.6818 59.3922 56.6445C59.3912 55.3039 58.9005 54.0099 58.0126 53.0056C58.7546 52.7258 59.4293 52.2924 59.9925 51.7341C61.9234 49.7975 62.138 46.7364 60.4962 44.5493C61.9575 44.5485 63.3588 43.9678 64.3922 42.9346C65.8347 41.4862 66.3579 39.3586 65.7517 37.4064ZM13.1992 61.0483H2.19986V23.6506H13.1992V61.0483ZM61.5183 42.1897C61.1882 42.2964 60.8432 42.3503 60.4962 42.3493H56.0965H51.6968C51.0893 42.3493 50.5968 42.8418 50.5968 43.4493C50.5968 44.0567 51.0893 44.5492 51.6968 44.5492H56.0965C57.9189 44.5492 59.3963 46.0266 59.3963 47.849C59.3963 49.6715 57.9189 51.1488 56.0965 51.1488H49.4969C48.8895 51.1488 48.397 51.6413 48.397 52.2487C48.397 52.8562 48.8895 53.3487 49.4969 53.3487H53.8966C55.7191 53.3487 57.1964 54.826 57.1964 56.6485C57.1964 58.4709 55.7191 59.9482 53.8966 59.9482H29.3187C25.3798 59.9433 21.496 59.0238 17.9729 57.2622L15.399 55.9698V29.114C24.0598 28.524 30.7869 21.3321 30.7981 12.6513V6.05175C30.7981 5.44431 31.2906 4.95182 31.898 4.95182H34.0979C37.1337 4.95539 39.5939 7.41566 39.5975 10.4515V13.8965C39.5989 17.3248 39.0462 20.7309 37.9608 23.9828L37.4538 25.5029C37.2618 26.0793 37.5734 26.7021 38.1497 26.8941C38.2619 26.9315 38.3794 26.9504 38.4976 26.9504H58.1314C59.5859 27.0043 60.8776 27.8954 61.4444 29.2361C62.0045 30.9703 61.0526 32.8303 59.3185 33.3904C58.9883 33.4971 58.6434 33.551 58.2964 33.55H52.7967C52.1893 33.55 51.6968 34.0425 51.6968 34.65C51.6968 35.2574 52.1893 35.7499 52.7967 35.7499H60.3312C61.7857 35.8038 63.0775 36.6949 63.6442 38.0356C64.2044 39.7697 63.2525 41.6297 61.5183 42.1897Z" fill="#053365"/>
<path d="M7.69945 53.3486C5.877 53.3486 4.39966 54.826 4.39966 56.6484C4.39966 58.4709 5.877 59.9482 7.69945 59.9482C9.5219 59.9482 10.9992 58.4709 10.9992 56.6484C10.9992 54.826 9.5219 53.3486 7.69945 53.3486ZM7.69945 57.7484C7.09201 57.7484 6.59952 57.2559 6.59952 56.6484C6.59952 56.041 7.09201 55.5485 7.69945 55.5485C8.30689 55.5485 8.79938 56.041 8.79938 56.6484C8.79938 57.2559 8.30689 57.7484 7.69945 57.7484Z" fill="#053365"/>
</svg>
