<svg width="30" height="52" viewBox="0 0 30 52" fill="none" xmlns="http://www.w3.org/2000/svg">
<path d="M19.0667 2.59961H10.4001C9.92172 2.59961 9.53345 2.98788 9.53345 3.46624C9.53345 3.9446 9.92172 4.33287 10.4001 4.33287H19.0667C19.5451 4.33287 19.9333 3.9446 19.9333 3.46624C19.9333 2.98788 19.5451 2.59961 19.0667 2.59961Z" fill="#053365"/>
<path d="M25.1334 2.59961H24.2668C23.7884 2.59961 23.4001 2.98788 23.4001 3.46624C23.4001 3.9446 23.7884 4.33287 24.2668 4.33287H25.1334C25.6118 4.33287 26 3.9446 26 3.46624C26 2.98788 25.6118 2.59961 25.1334 2.59961Z" fill="#053365"/>
<path d="M15.8096 44.2002H13.6577C12.3395 44.2002 11.2666 45.2731 11.2666 46.5913V47.0099C11.2666 48.3281 12.3395 49.4002 13.6569 49.4002H15.8088C17.127 49.4002 18.1999 48.3281 18.1999 47.0099V46.5913C18.1999 45.2731 17.127 44.2002 15.8096 44.2002ZM16.4666 47.0099C16.4666 47.3722 16.172 47.6668 15.8097 47.6668H13.6577C13.2946 47.6668 12.9999 47.3722 12.9999 47.0099V46.5913C12.9999 46.2282 13.2945 45.9335 13.6577 45.9335H15.8088C16.172 45.9335 16.4666 46.2281 16.4666 46.5913V47.0099Z" fill="#053365"/>
<path d="M26.3345 0H3.133C1.40573 0 0 1.40573 0 3.133V48.867C0 50.5943 1.40573 52 3.133 52H26.3336C28.0609 52 29.4666 50.5943 29.4666 48.8679V3.133C29.4667 1.40573 28.061 0 26.3345 0ZM27.7334 48.867C27.7334 49.6384 27.1059 50.2666 26.3345 50.2666H3.133C2.36082 50.2666 1.73337 49.6383 1.73337 48.8678V3.133C1.73337 2.36163 2.36082 1.73337 3.133 1.73337H26.3336C27.1058 1.73337 27.7333 2.36173 27.7333 3.133V48.867H27.7334Z" fill="#053365"/>
<path d="M28.5999 5.2002H0.866633C0.388274 5.2002 0 5.58847 0 6.06683V42.4668C0 42.9452 0.388274 43.3335 0.866633 43.3335H28.6C29.0784 43.3335 29.4666 42.9452 29.4666 42.4668V6.06683C29.4666 5.58847 29.0784 5.2002 28.5999 5.2002ZM27.7333 41.6002H1.73327V6.93356H27.7333V41.6002Z" fill="#053365"/>
</svg>
