<svg width="60" height="60" viewBox="0 0 60 60" fill="none" xmlns="http://www.w3.org/2000/svg">
<g clip-path="url(#clip0)">
<path d="M52.0964 22.3992H24.2058C23.7204 22.3992 23.3269 22.7927 23.3269 23.2781C23.3269 23.7635 23.7204 24.157 24.2058 24.157H52.0964C52.5818 24.157 52.9753 23.7635 52.9753 23.2781C52.9753 22.7927 52.5818 22.3992 52.0964 22.3992Z" fill="#07385B"/>
<path d="M52.0964 29.1179H24.2058C23.7204 29.1179 23.3269 29.5114 23.3269 29.9968C23.3269 30.4822 23.7204 30.8757 24.2058 30.8757H52.0964C52.5818 30.8757 52.9753 30.4822 52.9753 29.9968C52.9753 29.5114 52.5818 29.1179 52.0964 29.1179Z" fill="#07385B"/>
<path d="M52.0964 35.8367H24.2058C23.7204 35.8367 23.3269 36.2302 23.3269 36.7156C23.3269 37.201 23.7204 37.5945 24.2058 37.5945H52.0964C52.5818 37.5945 52.9753 37.201 52.9753 36.7156C52.9753 36.2302 52.5818 35.8367 52.0964 35.8367Z" fill="#07385B"/>
<path d="M54.8879 14.7126H21.4137C18.595 14.7126 16.3018 17.0058 16.3018 19.8246V40.8735C16.3018 43.6922 18.5949 45.9854 21.4137 45.9854H44.8759C45.1268 45.9854 45.3599 46.0983 45.5155 46.2953L53.0923 55.8874C53.3909 56.2655 53.8266 56.4715 54.2828 56.4715C54.4524 56.4715 54.6249 56.443 54.7941 56.3842C55.4184 56.1674 55.8217 55.6003 55.8217 54.9395V45.8981C58.1918 45.4554 59.9998 43.36 59.9998 40.8735V19.8245C59.9998 17.0058 57.7067 14.7126 54.8879 14.7126ZM58.242 40.8735C58.242 42.6989 56.7569 44.203 54.9314 44.2262C54.4505 44.2324 54.0638 44.6241 54.0638 45.1051V54.2815L46.895 45.2057C46.4041 44.584 45.6681 44.2275 44.8759 44.2275H21.4137C19.5643 44.2275 18.0596 42.7228 18.0596 40.8733V19.8245C18.0596 17.975 19.5641 16.4703 21.4137 16.4703H54.8879C56.7373 16.4703 58.242 17.975 58.242 19.8245V40.8735Z" fill="#07385B"/>
<path d="M12.9485 29.2452C12.3473 29.3305 11.809 29.64 11.4326 30.1165L5.39496 37.7602V30.0995C5.39496 29.6185 5.00824 29.2268 4.5273 29.2206C3.00023 29.2012 1.75781 27.9429 1.75781 26.4157V8.09219C1.75781 6.54496 3.01664 5.28613 4.56387 5.28613H33.7041C35.2513 5.28613 36.5101 6.54496 36.5101 8.09219V11.4827C36.5101 11.968 36.9036 12.3616 37.389 12.3616C37.8744 12.3616 38.2679 11.968 38.2679 11.4827V8.09219C38.2679 5.5757 36.2205 3.52832 33.7041 3.52832H4.56387C2.04738 3.52832 0 5.5757 0 8.09219V26.4157C0 28.6033 1.56691 30.4514 3.63727 30.8834V38.6607C3.63727 39.285 4.01836 39.8209 4.60828 40.0258C4.76824 40.0813 4.93113 40.1083 5.09144 40.1083C5.52234 40.1083 5.93426 39.9135 6.21633 39.5564L12.8121 31.2061C12.9073 31.0855 13.0436 31.0073 13.1957 30.9856C13.6762 30.9174 14.0106 30.4724 13.9423 29.9918C13.8741 29.5112 13.4298 29.1767 12.9485 29.2452Z" fill="#07385B"/>
</g>
<defs>
<clipPath id="clip0">
<rect width="60" height="60" fill="white"/>
</clipPath>
</defs>
</svg>
