<svg width="62" height="62" viewBox="0 0 62 62" fill="none" xmlns="http://www.w3.org/2000/svg">
<g clip-path="url(#clip0)">
<path d="M46.6672 12.4508C47.1689 12.4508 47.5754 12.0443 47.5754 11.5426V10.3218C47.5754 9.82009 47.1689 9.41357 46.6672 9.41357C46.1655 9.41357 45.759 9.82009 45.759 10.3218V11.5426C45.759 12.0442 46.1657 12.4508 46.6672 12.4508Z" fill="#053365"/>
<path d="M56.5483 20.5156C56.0466 20.5156 55.6401 20.9221 55.6401 21.4238C55.6401 21.9255 56.0466 22.332 56.5483 22.332H57.7691C58.2708 22.332 58.6773 21.9255 58.6773 21.4238C58.6773 20.9221 58.2708 20.5156 57.7691 20.5156H56.5483Z" fill="#053365"/>
<path d="M35.5654 20.5156C35.0637 20.5156 34.6572 20.9221 34.6572 21.4238C34.6572 21.9255 35.0637 22.332 35.5654 22.332H36.7863C37.288 22.332 37.6945 21.9255 37.6945 21.4238C37.6945 20.9221 37.288 20.5156 36.7863 20.5156H35.5654Z" fill="#053365"/>
<path d="M50.6506 49.5259C49.0376 49.5259 47.7253 50.8382 47.7253 52.451C47.7253 54.0639 49.0376 55.3762 50.6506 55.3762C52.2635 55.3762 53.5757 54.0639 53.5757 52.451C53.5757 50.8382 52.2635 49.5259 50.6506 49.5259ZM50.6506 53.5598C50.0391 53.5598 49.5417 53.0624 49.5417 52.451C49.5417 51.8396 50.0391 51.3423 50.6506 51.3423C51.262 51.3423 51.7593 51.8396 51.7593 52.451C51.7593 53.0624 51.262 53.5598 50.6506 53.5598Z" fill="#053365"/>
<path d="M17.4888 52.451C17.4888 54.0639 18.8011 55.3762 20.414 55.3762C22.027 55.3762 23.3392 54.0639 23.3392 52.451C23.3392 50.8382 22.027 49.5259 20.414 49.5259C18.8011 49.5259 17.4888 50.8381 17.4888 52.451ZM21.5228 52.451C21.5228 53.0624 21.0254 53.5598 20.414 53.5598C19.8026 53.5598 19.3052 53.0624 19.3052 52.451C19.3052 51.8396 19.8026 51.3423 20.414 51.3423C21.0254 51.3423 21.5228 51.8396 21.5228 52.451Z" fill="#053365"/>
<path d="M26.5801 38.5118C27.6054 37.5139 27.7236 35.778 26.5589 34.6446L22.7839 30.97C21.4221 29.645 19.236 29.6743 17.9106 31.0358L17.2037 31.7622C16.8539 32.1217 16.8616 32.6966 17.221 33.0464L20.8599 36.5884L17.221 40.1302C17.0485 40.2982 16.9496 40.5279 16.9464 40.7686C16.9431 41.0095 17.0357 41.2417 17.2037 41.4144L17.9106 42.1407C19.2404 43.5068 21.4218 43.5327 22.7839 42.2065L26.5801 38.5118ZM19.2123 40.874L19.1388 40.7985L22.7954 37.2392C22.971 37.0684 23.0702 36.8336 23.0702 36.5885C23.0702 36.3434 22.9712 36.1086 22.7954 35.9377L19.1388 32.3783L19.2123 32.3028C19.8393 31.6587 20.8731 31.6448 21.5171 32.2716L25.292 35.9462C25.6949 36.3383 25.641 36.891 25.3132 37.2102L21.5171 40.9051C20.8761 41.5289 19.8444 41.5234 19.2123 40.874Z" fill="#053365"/>
<path d="M45.759 21.4239C45.759 21.9256 46.1655 22.3321 46.6672 22.3321H49.7559C50.2575 22.3321 50.6641 21.9256 50.6641 21.4239C50.6641 20.9222 50.2575 20.5157 49.7559 20.5157H47.5754V14.8599C47.5754 14.3582 47.1689 13.9517 46.6672 13.9517C46.1655 13.9517 45.759 14.3582 45.759 14.8599V21.4239Z" fill="#053365"/>
<path d="M15.5146 13.6621H31.1528C31.6545 13.6621 32.061 13.2556 32.061 12.7539C32.061 12.2522 31.6545 11.8457 31.1528 11.8457H15.5146C15.0131 11.8457 14.6064 12.2522 14.6064 12.7539C14.6064 13.2556 15.0131 13.6621 15.5146 13.6621Z" fill="#053365"/>
<path d="M11.7239 18.354H27.9567C28.4583 18.354 28.8649 17.9475 28.8649 17.4458C28.8649 16.9441 28.4583 16.5376 27.9567 16.5376H11.7239C11.2223 16.5376 10.8157 16.9441 10.8157 17.4458C10.8157 17.9475 11.2223 18.354 11.7239 18.354Z" fill="#053365"/>
<path d="M21.0107 20.7222C20.5092 20.7222 20.1025 21.1287 20.1025 21.6304C20.1025 22.1321 20.5092 22.5386 21.0107 22.5386H29.0883C29.5899 22.5386 29.9965 22.1321 29.9965 21.6304C29.9965 21.1287 29.5899 20.7222 29.0883 20.7222H21.0107Z" fill="#053365"/>
<path d="M13.3535 20.7222C12.8519 20.7222 12.4453 21.1287 12.4453 21.6304C12.4453 22.1321 12.8519 22.5386 13.3535 22.5386H17.385C17.8865 22.5386 18.2932 22.1321 18.2932 21.6304C18.2932 21.1287 17.8865 20.7222 17.385 20.7222H13.3535Z" fill="#053365"/>
<path d="M0.908203 35.0454H4.2298C4.73137 35.0454 5.13801 34.6389 5.13801 34.1372C5.13801 33.6355 4.73137 33.229 4.2298 33.229H0.908203C0.406633 33.229 0 33.6355 0 34.1372C0 34.6389 0.406633 35.0454 0.908203 35.0454Z" fill="#053365"/>
<path d="M3.33008 43.0454H0.908203C0.406633 43.0454 0 43.4519 0 43.9536C0 44.4553 0.406633 44.8618 0.908203 44.8618H3.33008C3.83165 44.8618 4.23828 44.4553 4.23828 43.9536C4.23828 43.4519 3.83165 43.0454 3.33008 43.0454Z" fill="#053365"/>
<path d="M14.0147 35.3545H10.7756C10.2741 35.3545 9.86743 35.761 9.86743 36.2627C9.86743 36.7644 10.2741 37.1709 10.7756 37.1709H14.0147C14.5162 37.1709 14.9229 36.7644 14.9229 36.2627C14.9229 35.761 14.5162 35.3545 14.0147 35.3545Z" fill="#053365"/>
<path d="M55.2198 34.1492C59.4278 31.3142 62 26.5368 62 21.4238C62 18.9937 61.4472 16.6683 60.3568 14.5127C60.1304 14.0651 59.5839 13.8858 59.1365 14.1121C58.6889 14.3385 58.5095 14.8849 58.7359 15.3324C59.6964 17.2316 60.1836 19.2811 60.1836 21.4238C60.1836 26.0222 57.823 30.3124 53.979 32.7912L48.6914 27.0052C48.0772 26.3329 47.2026 25.9475 46.2921 25.9475H33.9277C33.4123 24.4982 33.1509 22.9793 33.1509 21.4238C33.1509 13.9708 39.2143 7.90753 46.6672 7.90753C50.5333 7.90753 54.2224 9.56942 56.7886 12.4671C57.1209 12.8425 57.6949 12.8776 58.0706 12.5448C58.4461 12.2123 58.481 11.6383 58.1484 11.2628C56.8142 9.75615 55.2116 8.54521 53.4453 7.67418V4.59828C53.4453 3.48058 52.536 2.57129 51.4183 2.57129H41.9162C40.7985 2.57129 39.8892 3.48058 39.8892 4.59828V7.67333C34.8252 10.1797 31.3345 15.4013 31.3345 21.4238C31.3345 22.9718 31.5636 24.4879 32.0146 25.9475H8.85534C7.69684 25.9475 6.74516 26.8431 6.65229 27.9782H3.33008C2.82851 27.9782 2.42188 28.3847 2.42188 28.8864C2.42188 29.3881 2.82851 29.7946 3.33008 29.7946H6.64308V38.5729H0.908203C0.406633 38.5729 0 38.9795 0 39.4812C0 39.9828 0.406633 40.3894 0.908203 40.3894H6.64308V43.0458C6.14551 43.0504 5.74336 43.4548 5.74336 43.9535C5.74336 44.4522 6.14539 44.8566 6.64308 44.8612V51.2855C6.64308 52.239 7.41881 53.0146 8.37218 53.0146H10.8157V53.6468H7.98214C7.48057 53.6468 7.07393 54.0533 7.07393 54.555C7.07393 55.0567 7.48057 55.4632 7.98214 55.4632H11.7239C12.2255 55.4632 12.6321 55.0567 12.6321 54.555V53.0146H13.4608C13.749 56.5994 16.7563 59.4289 20.4141 59.4289C21.6212 59.4289 22.8127 59.114 23.8598 58.5182C24.2958 58.2701 24.448 57.7156 24.2 57.2796C23.952 56.8436 23.3976 56.6916 22.9614 56.9394C22.1876 57.3798 21.3067 57.6125 20.4141 57.6125C17.568 57.6125 15.2525 55.2971 15.2525 52.4509C15.2525 49.6047 17.568 47.2893 20.4141 47.2893C23.2602 47.2893 25.5757 49.6047 25.5757 52.4509C25.5757 53.2269 25.4075 53.9732 25.0757 54.6691C24.8598 55.1219 25.052 55.6639 25.5046 55.8797C25.9575 56.0955 26.4994 55.9034 26.7153 55.4508C27.0833 54.6789 27.3 53.8614 27.3672 53.0146H43.6972C43.9854 56.5994 46.9927 59.4289 50.6505 59.4289C54.3082 59.4289 57.3155 56.5994 57.6038 53.0146H59.4734C60.8666 53.0146 62 51.8812 62 50.488V42.8264C62 42.0149 61.6986 41.2381 61.1511 40.6392L55.2198 34.1492ZM41.7057 4.59828C41.7057 4.48215 41.8001 4.3877 41.9162 4.3877H51.4183C51.5345 4.3877 51.6289 4.48215 51.6289 4.59828V6.91916C50.0473 6.37751 48.3727 6.09124 46.6672 6.09124C44.9316 6.09124 43.2626 6.38163 41.7055 6.91553V4.59828H41.7057ZM47.3507 28.2307L56.8021 38.5729H50.0272C49.5255 38.5729 49.119 38.9795 49.119 39.4812C49.119 39.9828 49.5255 40.3894 50.0272 40.3894H58.462L59.8104 41.8649C60.3601 42.4665 60.1291 43.1193 60.1836 43.8121H59.4834C58.9817 43.8121 58.5752 44.2186 58.5752 44.7203C58.5752 45.222 58.9817 45.6285 59.4834 45.6285H60.1836V46.9724H54.9643C53.7762 46.0347 52.2781 45.4731 50.6506 45.4731C49.0231 45.4731 47.5251 46.0347 46.3369 46.9724H36.4415V27.764H40.3585V38.5616C40.3585 39.5694 41.1784 40.3895 42.1863 40.3895H46.3963C46.898 40.3895 47.3046 39.983 47.3046 39.4813C47.3046 38.9796 46.898 38.5731 46.3963 38.5731H42.1863C42.18 38.5731 42.1749 38.5679 42.1749 38.5616V27.764H46.2923C46.6938 27.764 47.0797 27.9341 47.3507 28.2307ZM43.7873 51.1984H36.4412V48.7888H44.7141C44.2646 49.5146 43.9456 50.3287 43.7873 51.1984ZM26.3504 48.7888H34.6248V51.1984H27.2772C27.1188 50.3287 26.7999 49.5146 26.3504 48.7888ZM8.45949 48.7888H14.4776C14.0281 49.5146 13.7091 50.3287 13.5508 51.1984H8.45949V48.7888ZM16.1003 46.9724H8.45949V44.8618H12.395C12.8966 44.8618 13.3032 44.4553 13.3032 43.9536C13.3032 43.4519 12.8966 43.0454 12.395 43.0454H8.45949V40.3894H12.395C12.8966 40.3894 13.3032 39.9828 13.3032 39.4812C13.3032 38.9795 12.8966 38.5729 12.395 38.5729H8.45949V28.1599C8.45949 27.9415 8.63701 27.7639 8.85534 27.7639H34.6248V46.9723H24.7278C23.5397 46.0346 22.0416 45.473 20.4141 45.473C18.7866 45.473 17.2886 46.0347 16.1003 46.9724ZM50.6505 57.6128C47.8043 57.6128 45.4889 55.2973 45.4889 52.4511C45.4889 49.605 47.8043 47.2895 50.6505 47.2895C53.4967 47.2895 55.8121 49.605 55.8121 52.4511C55.8121 55.2973 53.4967 57.6128 50.6505 57.6128ZM59.4733 51.1984H57.5136C57.3552 50.3287 57.0362 49.5146 56.5867 48.7888H60.1836V50.4882C60.1836 50.8798 59.865 51.1984 59.4733 51.1984Z" fill="#053365"/>
</g>
<defs>
<clipPath id="clip0">
<rect width="62" height="62" fill="white"/>
</clipPath>
</defs>
</svg>
