<svg width="51" height="51" viewBox="0 0 51 51" fill="none" xmlns="http://www.w3.org/2000/svg">
<g clip-path="url(#clip0)">
<path d="M47.0281 13.491C47.0281 13.4399 46.977 13.3888 46.977 13.3888C46.9259 13.2866 46.8748 13.1844 46.8237 13.1333L46.7726 13.0822L33.2305 0.306613C33.1283 0.204409 33.0261 0.153307 32.9239 0.102204C32.8728 0.102204 32.8728 0.102204 32.8217 0.0511022C32.7195 0 32.6173 0 32.5151 0H32.464H9.82573C6.55519 0 3.94897 2.65731 3.94897 5.87675V45.1232C3.94897 48.3938 6.60629 51 9.82573 51H41.1514C44.4219 51 47.0281 48.3427 47.0281 45.1232V13.8487C47.0281 13.7976 47.0281 13.7976 47.0281 13.7976C47.0792 13.6954 47.0281 13.5932 47.0281 13.491ZM33.5883 3.78156L43.0933 12.7244H33.5883V3.78156ZM44.7796 45.1743C44.8307 47.1673 43.1955 48.8026 41.2025 48.8026H9.82573C7.83274 48.8026 6.19747 47.1673 6.19747 45.1743V5.92786C6.19747 3.93487 7.83274 2.2996 9.82573 2.2996H31.2887V13.8487C31.2887 14.4619 31.7997 14.9729 32.4129 14.9729H44.7796V45.1743Z" fill="#053365"/>
<path d="M22.1415 11.3447H11.8188C11.2056 11.3447 10.6946 11.8557 10.6946 12.469C10.6946 13.0822 11.2056 13.5932 11.8188 13.5932H22.1415C22.7547 13.5932 23.2657 13.0822 23.2657 12.469C23.2657 11.8557 22.7547 11.3447 22.1415 11.3447Z" fill="#053365"/>
<path d="M37.421 20.2366H11.8188C11.2056 20.2366 10.6946 20.7476 10.6946 21.3608C10.6946 21.974 11.2056 22.4851 11.8188 22.4851H37.421C38.0343 22.4851 38.5453 21.974 38.5453 21.3608C38.5453 20.7476 38.0343 20.2366 37.421 20.2366Z" fill="#053365"/>
<path d="M37.421 27.6973H11.8188C11.2056 27.6973 10.6946 28.2083 10.6946 28.8215C10.6946 29.4347 11.2056 29.9458 11.8188 29.9458H37.421C38.0343 29.9458 38.5453 29.4347 38.5453 28.8215C38.5453 28.2083 38.0343 27.6973 37.421 27.6973Z" fill="#053365"/>
<path d="M37.421 35.1072H11.8188C11.2056 35.1072 10.6946 35.6182 10.6946 36.2314C10.6946 36.8447 11.2056 37.3557 11.8188 37.3557H37.421C38.0343 37.3557 38.5453 36.8447 38.5453 36.2314C38.5453 35.6182 38.0343 35.1072 37.421 35.1072Z" fill="#053365"/>
</g>
<defs>
<clipPath id="clip0">
<rect width="51" height="51" fill="white"/>
</clipPath>
</defs>
</svg>
