<svg width="19" height="19" viewBox="0 0 19 19" fill="none" xmlns="http://www.w3.org/2000/svg">
<g clip-path="url(#clip0)">
<path d="M16.6805 2.27032H2.3234C1.0418 2.27032 0 3.31212 0 4.59373V14.4063C0 15.6879 1.0418 16.7297 2.3234 16.7297H16.6766C17.9582 16.7297 19 15.6879 19 14.4063V4.59766C19.0039 3.31605 17.9621 2.27032 16.6805 2.27032ZM17.9425 14.4063C17.9425 15.1021 17.3764 15.6682 16.6805 15.6682H2.3234C1.62756 15.6682 1.06145 15.1021 1.06145 14.4063V4.59766C1.06145 3.90182 1.62756 3.33571 2.3234 3.33571H16.6766C17.3724 3.33571 17.9385 3.90182 17.9385 4.59766V14.4063H17.9425Z" fill="#053365"/>
<path d="M11.9825 9.37816L16.6293 5.21097C16.8455 5.01441 16.8652 4.68024 16.6686 4.46009C16.472 4.24387 16.1379 4.22421 15.9177 4.42078L9.50968 10.1723L8.25953 9.05579C8.2556 9.05186 8.25166 9.04793 8.25166 9.04399C8.22414 9.01648 8.19663 8.99289 8.16518 8.9693L3.07807 4.41685C2.85791 4.22028 2.52375 4.23994 2.32719 4.46009C2.13062 4.68024 2.15028 5.01441 2.37043 5.21097L7.07227 9.41354L2.39009 13.7969C2.1778 13.9974 2.166 14.3316 2.3665 14.5478C2.47265 14.6579 2.61417 14.7169 2.7557 14.7169C2.88543 14.7169 3.01517 14.6697 3.11738 14.5753L7.87033 10.129L9.1598 11.2809C9.26201 11.3713 9.38781 11.4146 9.51361 11.4146C9.63942 11.4146 9.76915 11.3674 9.86743 11.277L11.1923 10.0897L15.9177 14.5793C16.0199 14.6776 16.1536 14.7247 16.2833 14.7247C16.4248 14.7247 16.5624 14.6697 16.6686 14.5596C16.8691 14.3473 16.8612 14.0092 16.6489 13.8087L11.9825 9.37816Z" fill="#053365"/>
</g>
<defs>
<clipPath id="clip0">
<rect width="19" height="19" fill="white"/>
</clipPath>
</defs>
</svg>
