<svg width="18" height="18" viewBox="0 0 18 18" fill="none" xmlns="http://www.w3.org/2000/svg">
<path d="M9 0C4.03752 0 0 4.03731 0 9C0 13.9627 4.03752 18 9 18C13.9627 18 18 13.9627 18 9C18 4.03731 13.9625 0 9 0ZM9 16.6861C4.76191 16.6861 1.31386 13.2381 1.31386 9C1.31386 4.76191 4.76191 1.31386 9 1.31386C13.2381 1.31386 16.6861 4.76188 16.6861 8.99979C16.6861 13.2381 13.2381 16.6861 9 16.6861Z" fill="#053365"/>
<path d="M12.0656 8.99985H9.21889V5.05824C9.21889 4.69539 8.92481 4.40131 8.56196 4.40131C8.19911 4.40131 7.90503 4.69539 7.90503 5.05824V9.65678C7.90503 10.0196 8.19911 10.3137 8.56196 10.3137H12.0656C12.4284 10.3137 12.7225 10.0196 12.7225 9.65678C12.7225 9.29393 12.4284 8.99985 12.0656 8.99985Z" fill="#053365"/>
</svg>
